<svg xmlns="http://www.w3.org/2000/svg" viewBox="0 0 426 424.66" path="#fff"><defs></defs><title>graphIcon</title><g id="Camada_2" data-name="Camada 2"><g id="Camada_1-2" data-name="Camada 1"><path class="cls-1" d="M199,210.26h0a1.37,1.37,0,0,0-.48-1L67.22,94.67a23.59,23.59,0,0,0-35.56,5.21A212,212,0,0,0,0,211.66H0c0,117.64,95.36,213,213,213h0a212,212,0,0,0,124.82-40.4,33,33,0,0,0,2.34-51.5L201.73,212a1.41,1.41,0,0,0-.92-.34h-.41A1.4,1.4,0,0,1,199,210.26Z"/><path class="cls-1" d="M188.57.06A212.09,212.09,0,0,0,74.44,49.89a9.37,9.37,0,0,0,0,14.17l109,95.07A9.4,9.4,0,0,0,199,152.05V9.41A9.4,9.4,0,0,0,188.57.06Z"/><path class="cls-1" d="M426,211.66C426,105.78,348.75,18,247.54,1.46A16.87,16.87,0,0,0,228,18.13V187.42A23.3,23.3,0,0,0,236,205L369,321a19.5,19.5,0,0,0,29.8-5.11A212,212,0,0,0,426,211.66Z"/></g></g></svg>