<svg xmlns="http://www.w3.org/2000/svg" viewBox="0 0 462.5 558.2" path="#fff"><defs></defs><title>peopleIcon</title><g id="Camada_2" data-name="Camada 2"><g id="Camada_1-2" data-name="Camada 1"><path class="cls-1" d="M291.2,298.2A109.8,109.8,0,1,0,181.4,188.4,110,110,0,0,0,291.2,298.2Zm0-179.8a69.7,69.7,0,1,1-69.7,69.7A69.69,69.69,0,0,1,291.2,118.4Z"/><path class="cls-1" d="M347.7,328.6H234.6a114.8,114.8,0,0,0,0,229.6H347.7a114.8,114.8,0,0,0,0-229.6Zm-.2,189.8H234.4a75,75,0,0,1,0-150H347.5a75,75,0,0,1,0,150Z"/><path class="cls-1" d="M167.7,179h-.5A69.67,69.67,0,1,1,233.5,78.1c12.6-4.9,26-7.2,39.4-9.7A110,110,0,0,0,177.8.2C117.4-3.4,65.3,42.9,61.6,103.3s42.7,112.5,103.1,116.2c1.5.1,2.9.1,4.4.2a111.26,111.26,0,0,1-2.5-30.7C166.8,185.5,167.2,182.2,167.7,179Z"/><path class="cls-1" d="M109.9,439.2a75,75,0,0,1,4.7-149.8h85.7c-11.9-10.3-21.7-23.4-29.8-37.2a19.55,19.55,0,0,1-1.2-2.6H114.8a114.8,114.8,0,0,0,0,229.6h.7a113.39,113.39,0,0,1-5.6-35.6A32.3,32.3,0,0,1,109.9,439.2Z"/></g></g></svg>