
<svg  xmlns="http://www.w3.org/2000/svg"
	 viewBox="0 0 364.9 368.9"  path="#fff"><defs></defs><title>warning</title>
<path id="XMLID_15_" class="st0" d="M185.9,13.8L185.9,13.8c-95.4,0-172.7,77.3-172.7,172.7l0,0c0,95.4,77.3,172.7,172.7,172.7l0,0
	c95.4,0,172.7-77.3,172.7-172.7l0,0C358.6,91.2,281.3,13.8,185.9,13.8z M186.8,303c-10.3,0-18.7-8.4-18.7-18.7
	c0-10.3,8.4-18.7,18.7-18.7s18.7,8.4,18.7,18.7C205.5,294.6,197.1,303,186.8,303z M205.5,233.3c0,10.3-8.4,18.7-18.7,18.7
	s-18.7-8.4-18.7-18.7V88.8c0-10.3,8.4-18.7,18.7-18.7s18.7,8.4,18.7,18.7V233.3z"/>
<g id="XMLID_44_">
</g>
<g id="XMLID_45_">
</g>
<g id="XMLID_46_">
</g>
<g id="XMLID_47_">
</g>
<g id="XMLID_48_">
</g>
<g id="XMLID_49_">
</g>
</svg>
