<svg id="Camada_1" data-name="Camada 1" xmlns="http://www.w3.org/2000/svg" xmlns:xlink="http://www.w3.org/1999/xlink" viewBox="0 0 1024 1024"><defs><style>.cls-1{fill:url(#Gradiente_sem_nome_49);}.cls-2{fill:#fff;}.cls-3{fill:#fdfefd;}</style><linearGradient id="Gradiente_sem_nome_49" x1="0.42" y1="512.25" x2="1023.26" y2="512.25" gradientUnits="userSpaceOnUse"><stop offset="0" stop-color="#ff8b37"/><stop offset="1" stop-color="#ff6130"/></linearGradient></defs><title>icon-white-circle</title><polygon points="531.66 494.05 541.07 501.41 541.07 501.41 531.66 494.05"/><path class="cls-1" d="M.42,512.25C.42,229.8,229.39.83,511.84.83h0c282.45,0,511.42,229,511.42,511.42h0c0,282.46-229,511.43-511.42,511.43h0C229.39,1023.68.42,794.71.42,512.25"/><path class="cls-2" d="M730.69,618.48,598.75,515.27a14.9,14.9,0,0,1,0-23.48l43-33.64,0,.06,17.82-13.94c15.68-12.26,16.55-36,1.35-48.87a31.3,31.3,0,0,0-39.5-.75l-14,10.94-.06-.08L594,416.05l0,0-61,47.73a50.44,50.44,0,0,0,0,79.46h0L691.13,667c5.26,4.11,8.16,9,8.16,13.66s-2.9,9.54-8.18,13.66L623.75,747l-.06-.06-15.54,12.14-.16-.12L589.12,773.7c-15.68,12.26-16.54,36-1.34,48.87a31.3,31.3,0,0,0,39.49.76L646,808.7l.16.12,11.48-9,0,.07,73-57c20.65-16.14,32-38.22,32-62.19S751.33,634.63,730.69,618.48Z"/><path class="cls-3" d="M302.1,675h.06l0,48.85c0,23.63,11.65,46.3,32,62.22l101.39,79.29c18.55,14.5,42.79,22.49,68.27,22.49h0a114,114,0,0,0,55.95-14.28l.18.09,1.21-1c16.81-13.15,17.54-35.55,1.07-49.13a31.29,31.29,0,0,0-34.63-3.48l0,0a50.33,50.33,0,0,1-23.74,5.66h0c-11,0-21.5-3.24-28.72-8.89l-77-59.92-4.9-3.94-14-11.21C359.43,725.84,355,700,365.85,679.61a5.43,5.43,0,0,1,1.87-3.2,52,52,0,0,1,11.49-12.79l36.68-29.47q6.94-5.6,13.56-11.58h0v-.08l41.73-32.76,19.61-14.81a31.3,31.3,0,0,0-.51-49.7,31.67,31.67,0,0,0-38.44.7l-21.18,16.57a39.78,39.78,0,0,1-8.78,5.28c-24.75,10.6-54.39-6.33-56.13-34.75-.05-.86-.09-1.73-.09-2.62l0-64.77a31.75,31.75,0,0,0-31.75-31.74h0a31.76,31.76,0,0,0-31.75,31.75Z"/><path class="cls-3" d="M747.93,281.36a89.26,89.26,0,0,0-17.7-18.28l-124.4-97.2L572.1,139.52c-18.55-14.49-42.79-22.47-68.27-22.47s-49.72,8-68.27,22.49l-39.7,31-61.71,48.25c-20.36,15.91-32,38.59-32,62.22V360a31.73,31.73,0,0,0,31.72,31.73h0A31.72,31.72,0,0,0,365.57,360l0-37.66h.29V310.63c0-23.63,11.66-46.31,32-62.22L422.63,229h.09l18.15-14.18,34.24-26.78c7.23-5.65,17.7-8.89,28.73-8.89s21.5,3.23,28.72,8.88L565.7,214,652,281.36l38.74,30.27c5.27,4.12,8.17,9,8.17,13.66s-2.9,9.54-8.16,13.66l-3.12,2.44v.05l-3.18,2.49c-15.68,12.26-16.55,36-1.35,48.86a31.29,31.29,0,0,0,39.5.76l10.72-8.38a1.6,1.6,0,0,1,.05-.21C752,369.07,762.27,348,762.27,325.27A74.75,74.75,0,0,0,747.93,281.36Z"/></svg>